<svg id="Layer_1" height="512" viewBox="0 0 512 512" width="512" xmlns="http://www.w3.org/2000/svg" xmlns:xlink="http://www.w3.org/1999/xlink" data-name="Layer 1"><linearGradient id="linear-gradient" gradientUnits="userSpaceOnUse" x1="256" x2="256" y1="30" y2="484.159"><stop offset="0" stop-color="#00efd1"/><stop offset="1" stop-color="#00acea"/></linearGradient><linearGradient id="linear-gradient-2" x1="209.192" x2="209.192" xlink:href="#linear-gradient" y1="30" y2="484.159"/><linearGradient id="linear-gradient-3" x1="302.809" x2="302.809" xlink:href="#linear-gradient" y1="30" y2="484.159"/><linearGradient id="linear-gradient-4" x1="256" x2="256" xlink:href="#linear-gradient" y1="30" y2="484.159"/><path d="m488 39.742a5.522 5.522 0 0 0 -5.684-5.742h-452.633a5.521 5.521 0 0 0 -5.683 5.742v361.188a5.8 5.8 0 0 0 5.683 6.07h158.4l-16.635 59h-28.981a6 6 0 1 0 0 12h227.066a6 6 0 0 0 0-12h-28.984l-16.635-59h158.4a5.8 5.8 0 0 0 5.686-6.07v-69-12zm-452 6.258h440v274h-440zm292.086 420h-144.172l16.635-59h110.9zm147.914-71h-440v-63h440z" fill="url(#linear-gradient)"/><path d="m237.674 144.592a6 6 0 0 0 -8.4-1.167l-47.394 35.837a6 6 0 0 0 0 9.571l47.394 35.838a6 6 0 1 0 7.237-9.571l-41.065-31.052 41.061-31.048a6 6 0 0 0 1.167-8.408z" fill="url(#linear-gradient-2)"/><path d="m330.125 179.262-47.394-35.837a6 6 0 1 0 -7.238 9.575l41.065 31.052-41.065 31.048a6 6 0 1 0 7.238 9.571l47.394-35.838a6 6 0 0 0 0-9.571z" fill="url(#linear-gradient-3)"/><g fill="url(#linear-gradient-4)"><path d="m264.986 124.958a6.006 6.006 0 0 0 -6.83 5.034l-16.178 106.893a6 6 0 1 0 11.865 1.8l16.178-106.893a6 6 0 0 0 -5.035-6.834z"/><path d="m256 73.6a110.4 110.4 0 1 0 110.4 110.4 110.522 110.522 0 0 0 -110.4-110.4zm0 208.8a98.4 98.4 0 1 1 98.4-98.4 98.509 98.509 0 0 1 -98.4 98.4z"/></g></svg>