<svg version="1.2" baseProfile="tiny-ps" xmlns="http://www.w3.org/2000/svg" viewBox="0 0 80 80" width="80" height="80">
	<title>handshake-svg</title>
	<style>
		tspan { white-space:pre }
		.shp0 { fill: #f29f5c } 
		.shp1 { fill: #d37d42 } 
		.shp2 { fill: #f9c295 } 
		.shp3 { fill: #e59f6a } 
		.shp4 { fill: #5c9cee } 
		.shp5 { fill: #3580d3 } 
		.shp6 { fill: #ed5575 } 
		.shp7 { fill: #cc3a60 } 
		.shp8 { fill: #ebeef2 } 
	</style>
	<path id="Layer" class="shp0" d="M65.23 38.85L63.2 22.37L59.4 22.84L59.4 22.84L52.03 18.69C51.24 18.25 50.34 18.05 49.44 18.14L37.81 19.21C36.38 19.35 35.1 20.16 34.38 21.4L26.18 35.52C25.57 36.56 26.05 37.9 27.18 38.32L27.51 38.45C28.16 38.69 28.82 38.83 29.48 38.89L28.44 39.79L26.37 41.61L20.45 46.65C19.4 47.57 19.29 49.16 20.21 50.21L20.81 50.9C21.99 52.25 24.03 52.39 25.39 51.21L27.65 53.8C28.38 54.65 29.46 55.02 30.49 54.89C31.11 54.82 31.72 54.56 32.23 54.12L34.48 56.71C35.22 57.55 36.3 57.93 37.33 57.8C37.95 57.72 38.56 57.47 39.07 57.02L40.29 58.08C41.47 59.44 43.52 59.58 44.87 58.4L46.54 56.94L60.56 46.03L60.58 46.01L66.11 46.01L65.23 38.85Z" />
	<path id="Layer" class="shp1" d="M59.22 41.77L59.2 41.78L45.18 52.7L43.52 54.15C42.16 55.33 40.11 55.19 38.93 53.84L37.71 52.78C37.2 53.22 36.59 53.48 35.97 53.55C34.94 53.68 33.86 53.31 33.13 52.46L30.87 49.87C30.36 50.32 29.76 50.57 29.13 50.65C28.1 50.78 27.02 50.4 26.29 49.56L24.03 46.97C22.87 47.98 21.2 48.02 20.01 47.16C19.4 48.08 19.44 49.34 20.21 50.21L20.81 50.9C21.99 52.25 24.04 52.39 25.39 51.21L27.65 53.8C28.38 54.65 29.46 55.02 30.49 54.89C31.11 54.82 31.72 54.56 32.23 54.12L34.48 56.71C35.22 57.56 36.3 57.93 37.33 57.8C37.95 57.72 38.56 57.47 39.07 57.02L40.29 58.08C41.47 59.44 43.52 59.58 44.87 58.4L46.54 56.94L60.56 46.03L60.58 46.01L66.11 46.01L65.5 41.04L59.22 41.77Z" />
	<path id="Layer" class="shp2" d="M61.77 48.89L54.26 42.42L52.17 40.62L50.68 39.33L44.25 33.79L44.99 27.47C45.24 25.34 43.9 23.34 41.82 22.76L27.82 18.89C26.33 18.48 24.77 19.17 24.07 20.53L22.31 23.97L14.74 23.46L12.81 39.95L11.97 47.11L19.33 47.6L19.34 47.61L34.72 60.87L36.39 62.31C37.75 63.48 39.8 63.33 40.97 61.97L43.22 59.37C43.72 59.81 44.33 60.06 44.95 60.14C45.99 60.26 47.06 59.88 47.8 59.03L50.04 56.43C50.55 56.87 51.16 57.12 51.78 57.2C52.81 57.32 53.89 56.94 54.62 56.09L56.86 53.49C58.22 54.66 60.27 54.5 61.44 53.15L62.03 52.46C62.95 51.4 62.83 49.81 61.77 48.89Z" />
	<g id="Layer">
		<path id="Layer" class="shp3" d="M61.77 48.89L59.48 46.92C60.23 47.91 60.21 49.31 59.37 50.28L58.74 51.02C57.5 52.46 55.32 52.62 53.88 51.38L51.5 54.14C50.72 55.04 49.58 55.44 48.48 55.31C47.82 55.24 47.18 54.97 46.64 54.5L44.26 57.26C43.48 58.17 42.34 58.57 41.24 58.44C40.58 58.36 39.93 58.09 39.39 57.63L37.01 60.39C36.56 60.91 35.99 61.26 35.38 61.44L36.39 62.31C37.75 63.49 39.8 63.33 40.97 61.97L43.22 59.37C43.72 59.81 44.33 60.06 44.95 60.14C45.99 60.26 47.06 59.88 47.8 59.03L50.04 56.43C50.55 56.87 51.16 57.12 51.78 57.2C52.81 57.32 53.89 56.94 54.62 56.09L56.86 53.49C58.22 54.66 60.27 54.5 61.44 53.15L62.03 52.46C62.95 51.4 62.83 49.81 61.77 48.89Z" />
		<path id="Layer" class="shp3" d="M57.62 52.62L53.51 49.07C53.02 48.65 52.28 48.7 51.86 49.19C51.43 49.68 51.49 50.42 51.98 50.84L56.09 54.38L56.86 53.49C57.17 53.75 57.52 53.95 57.88 54.08C58.15 53.6 58.05 52.99 57.62 52.62Z" />
		<path id="Layer" class="shp3" d="M51.04 57.02C51.32 56.54 51.23 55.91 50.8 55.54L47.1 52.35C46.61 51.93 45.87 51.98 45.45 52.47C45.03 52.96 45.08 53.7 45.57 54.12L49.27 57.31C49.27 57.31 49.27 57.31 49.28 57.31L50.04 56.43C50.34 56.69 50.68 56.89 51.04 57.02Z" />
	</g>
	<g id="Layer">
		<path id="Layer" class="shp0" d="M19.71 47.58L18.82 48.76C17.85 50.04 18.1 51.87 19.38 52.84L19.38 52.84C20.66 53.81 22.49 53.56 23.46 52.27L24.35 51.1C25.32 49.82 25.07 47.99 23.79 47.02L23.79 47.02C22.5 46.05 20.68 46.3 19.71 47.58Z" />
		<path id="Layer" class="shp0" d="M25.14 50.06L23.46 52.27C22.49 53.56 22.74 55.38 24.02 56.35L24.02 56.35C25.3 57.32 27.13 57.07 28.1 55.79L29.77 53.57C30.74 52.29 30.49 50.47 29.21 49.5L29.21 49.5C27.93 48.53 26.11 48.78 25.14 50.06Z" />
		<path id="Layer" class="shp0" d="M30.38 52.77L28.1 55.79C27.13 57.07 27.38 58.89 28.66 59.86L28.66 59.86C29.94 60.83 31.77 60.58 32.74 59.3L35.02 56.28C35.99 55 35.74 53.18 34.46 52.21L34.46 52.21C33.18 51.24 31.35 51.49 30.38 52.77Z" />
		<path id="Layer" class="shp0" d="M35.16 56.11L32.74 59.3C31.77 60.58 32.02 62.41 33.3 63.38L33.3 63.38C34.58 64.35 36.41 64.1 37.38 62.81L39.79 59.62C40.77 58.34 40.51 56.51 39.23 55.54L39.23 55.54C37.95 54.57 36.13 54.83 35.16 56.11Z" />
		<path id="Layer" class="shp0" d="M59.4 22.84L52.03 18.69C51.24 18.25 50.34 18.05 49.44 18.14L37.81 19.21C36.38 19.35 35.1 20.16 34.38 21.4L26.18 35.52C25.57 36.56 26.05 37.9 27.18 38.32L27.51 38.45C30.52 39.58 33.91 38.62 35.87 36.07L39.01 31.98C39.01 31.98 46.56 40.73 54.88 30.51" />
	</g>
	<path id="Layer" class="shp4" d="M79.84 48.21L75.98 16.9C75.94 16.6 75.79 16.32 75.54 16.12C75.3 15.93 74.99 15.85 74.68 15.89L65.67 17C63.33 17.28 61.66 19.42 61.94 21.76L65.04 46.9C65.3 49.06 67.15 50.66 69.28 50.66C69.45 50.66 69.63 50.64 69.81 50.62L78.82 49.51C79.46 49.43 79.91 48.85 79.84 48.21Z" />
	<path id="Layer" class="shp5" d="M79.84 48.21L79.41 44.77C79.22 45.05 78.91 45.26 78.55 45.3L69.1 46.46C68.92 46.49 68.73 46.5 68.55 46.5C66.96 46.5 65.52 45.65 64.72 44.34L65.04 46.9C65.3 49.06 67.15 50.66 69.28 50.66C69.45 50.66 69.63 50.64 69.81 50.62L78.82 49.51C79.46 49.43 79.91 48.85 79.84 48.21Z" />
	<path id="Layer" class="shp6" d="M14.18 16.99L5.17 15.89C4.86 15.85 4.55 15.93 4.3 16.12C4.06 16.32 3.9 16.6 3.86 16.9L0.01 48.21C-0.07 48.85 0.39 49.43 1.03 49.51L10.04 50.62C10.22 50.64 10.39 50.66 10.56 50.66C12.69 50.66 14.54 49.06 14.81 46.9L17.9 21.76C18.19 19.42 16.52 17.28 14.18 16.99Z" />
	<path id="Layer" class="shp7" d="M0.01 48.21L0.43 44.77C0.62 45.05 0.93 45.26 1.29 45.3L10.74 46.46C10.93 46.49 11.11 46.5 11.29 46.5C12.88 46.5 14.32 45.65 15.12 44.34L14.81 46.9C14.54 49.06 12.69 50.66 10.56 50.66C10.39 50.66 10.22 50.64 10.04 50.62L1.03 49.51C0.39 49.43 -0.07 48.85 0.01 48.21Z" />
	<g id="Layer">
		<path id="Layer" class="shp8" d="M72.36 45.46C71.11 45.46 70.1 44.45 70.1 43.2C70.1 41.95 71.11 40.94 72.36 40.94C73.61 40.94 74.62 41.95 74.62 43.2C74.62 44.45 73.61 45.46 72.36 45.46Z" />
		<path id="Layer" class="shp8" d="M7.36 45.46C6.11 45.46 5.1 44.45 5.1 43.2C5.1 41.95 6.11 40.94 7.36 40.94C8.61 40.94 9.62 41.95 9.62 43.2C9.62 44.45 8.61 45.46 7.36 45.46Z" />
	</g>
	<g id="Layer">
	</g>
	<g id="Layer">
	</g>
	<g id="Layer">
	</g>
	<g id="Layer">
	</g>
	<g id="Layer">
	</g>
	<g id="Layer">
	</g>
	<g id="Layer">
	</g>
	<g id="Layer">
	</g>
	<g id="Layer">
	</g>
	<g id="Layer">
	</g>
	<g id="Layer">
	</g>
	<g id="Layer">
	</g>
	<g id="Layer">
	</g>
	<g id="Layer">
	</g>
	<g id="Layer">
	</g>
</svg>