<svg version="1.2" baseProfile="tiny-ps" xmlns="http://www.w3.org/2000/svg" viewBox="0 0 80 80" width="80" height="80">
	<title>idea-svg</title>
	<style>
		tspan { white-space:pre }
		.shp0 { fill: #ffd15c } 
		.shp1 { fill: #ffffff } 
		.shp2 { fill: #344a5e } 
		.shp3 { fill: #415a6b } 
	</style>
	<path id="Layer" class="shp0" d="M49.17 61.17C50.17 57.83 52.17 54.83 54.83 52.5C59.83 48.33 63 42 63 35C63 22 52.17 11.33 38.83 12C27 12.5 17.33 22.5 17 34.33C16.83 41.67 20 48.17 25.17 52.5C28 54.83 30 57.83 31 61.17L49.17 61.17L49.17 61.17Z" />
	<path id="Layer" class="shp1" d="M37.83 61.5L39.33 61.5L32.67 36.67C32.83 36.67 33 36.67 33.17 36.67C34 36.67 34.83 36.33 35.5 35.67C35.83 35.33 36.17 35.17 36.67 35.17C37.17 35.17 37.5 35.33 37.83 35.67C39 37 41 37 42.17 35.67C42.5 35.33 42.83 35.17 43.33 35.17C43.67 35.17 44.17 35.33 44.5 35.67C45.17 36.33 45.83 36.67 46.83 36.67C47 36.67 47.17 36.67 47.33 36.67L40.83 61.5L42.33 61.5L49.17 35.5C49.17 35.17 49.17 34.83 48.83 34.67C48.5 34.5 48.17 34.67 48 34.83C47.67 35.17 47.33 35.33 47 35.33C46.5 35.33 46.17 35.17 45.67 34.83C45 34.17 44.33 33.83 43.5 33.83C42.67 33.83 42 34.17 41.33 34.83C40.67 35.5 39.67 35.5 39 34.83C38.5 34.17 37.67 33.83 36.83 33.83L36.83 33.83C36 33.83 35.17 34.17 34.67 34.83C34.33 35.17 33.83 35.33 33.33 35.33C33 35.33 32.5 35.17 32.33 34.83C32.17 34.67 31.83 34.5 31.5 34.67C31.17 34.83 31 35.17 31.17 35.5L37.83 61.5Z" />
	<g id="Layer">
		<path id="Layer" class="shp2" d="M34.83 76.5C35.67 78.5 37.67 80 40 80C42.33 80 44.33 78.5 45.17 76.5L34.83 76.5Z" />
		<path id="Layer" class="shp2" d="M46.17 76.67L34 76.67C32.33 76.67 31 75.33 31 73.67L31 61L49.17 61L49.17 73.67C49.17 75.33 47.83 76.67 46.17 76.67Z" />
	</g>
	<g id="Layer">
		<path id="Layer" class="shp3" d="M49 67.33L31 67.33C30 67.33 29.17 66.5 29.17 65.5L29.17 65.5C29.17 64.5 30 63.67 31 63.67L49 63.67C50 63.67 50.83 64.5 50.83 65.5L50.83 65.5C50.83 66.5 50 67.33 49 67.33Z" />
		<path id="Layer" class="shp3" d="M49 73.17L31 73.17C30 73.17 29.17 72.33 29.17 71.33L29.17 71.33C29.17 70.33 30 69.5 31 69.5L49 69.5C50 69.5 50.83 70.33 50.83 71.33L50.83 71.33C50.83 72.33 50 73.17 49 73.17Z" />
	</g>
	<g id="Layer">
		<path id="Layer" class="shp0" d="M40 0C39.17 0 38.33 0.67 38.33 1.67L38.33 7.33C38.33 8.17 39 9 40 9C41 9 41.67 8.33 41.67 7.33L41.67 1.67C41.67 0.67 40.83 0 40 0Z" />
		<path id="Layer" class="shp0" d="M17.67 10.17C17 9.5 16 9.5 15.33 10.17C14.67 10.83 14.67 11.83 15.33 12.5L19.33 16.5C20 17.17 21 17.17 21.67 16.5C22.33 15.83 22.33 14.83 21.67 14.17L17.67 10.17Z" />
		<path id="Layer" class="shp0" d="M12.5 33.17L6.83 33.17C6 33.17 5.17 33.83 5.17 34.83L5.17 34.83C5.17 35.67 5.83 36.5 6.83 36.5L12.5 36.5C13.33 36.5 14.17 35.83 14.17 34.83L14.17 34.83C14.17 34 13.33 33.17 12.5 33.17Z" />
		<path id="Layer" class="shp0" d="M19.33 53.17L15.33 57.17C14.67 57.83 14.67 58.83 15.33 59.5C16 60.17 17 60.17 17.67 59.5L21.67 55.5C22.33 54.83 22.33 53.83 21.67 53.17C21 52.5 20 52.5 19.33 53.17Z" />
		<path id="Layer" class="shp0" d="M60.67 53.17C60 52.5 59 52.5 58.33 53.17C57.67 53.83 57.67 54.83 58.33 55.5L62.33 59.5C63 60.17 64 60.17 64.67 59.5C65.33 58.83 65.33 57.83 64.67 57.17L60.67 53.17Z" />
		<path id="Layer" class="shp0" d="M73.17 33.17L67.5 33.17C66.67 33.17 65.83 33.83 65.83 34.83L65.83 34.83C65.83 35.67 66.5 36.5 67.5 36.5L73.17 36.5C74 36.5 74.83 35.83 74.83 34.83L74.83 34.83C74.83 34 74.17 33.17 73.17 33.17Z" />
		<path id="Layer" class="shp0" d="M62.33 10.17L58.33 14.17C57.67 14.83 57.67 15.83 58.33 16.5C59 17.17 60 17.17 60.67 16.5L64.67 12.5C65.33 11.83 65.33 10.83 64.67 10.17C64 9.5 63 9.5 62.33 10.17Z" />
	</g>
	<g id="Layer">
	</g>
	<g id="Layer">
	</g>
	<g id="Layer">
	</g>
	<g id="Layer">
	</g>
	<g id="Layer">
	</g>
	<g id="Layer">
	</g>
	<g id="Layer">
	</g>
	<g id="Layer">
	</g>
	<g id="Layer">
	</g>
	<g id="Layer">
	</g>
	<g id="Layer">
	</g>
	<g id="Layer">
	</g>
	<g id="Layer">
	</g>
	<g id="Layer">
	</g>
	<g id="Layer">
	</g>
</svg>