<svg xmlns="http://www.w3.org/2000/svg" width="80" height="80" baseProfile="tiny-ps" version="1.2" viewBox="0 0 80 80"><title>planning-svg</title><style>.shp0{fill:#ffeaa7}.shp1{fill:#f0d0b4}.shp2{fill:#aab2bd}.shp3{fill:#4fc1e9}.shp4{fill:#b4dd7f}.shp5{fill:#e6e9ed}.shp6{fill:#fcd770}.shp7{fill:#cf9e76}.shp8{fill:#ff826e}.shp9{fill:#000}</style><g id="Layer"><g id="Layer"><g id="Layer"><path id="Layer" d="M52.5 67.5L52.5 72.5C52.5 75.26 50.26 77.5 47.5 77.5L7.5 77.5C4.74 77.5 2.5 75.26 2.5 72.5L2.5 10C2.5 7.24 4.74 5 7.5 5L17.5 5L17.5 10L8.75 10C8.06 10 7.5 10.56 7.5 11.25L7.5 22.5L7.5 71.25C7.5 71.94 8.06 72.5 8.75 72.5L46.25 72.5C46.94 72.5 47.5 71.94 47.5 71.25L47.5 67.5L52.5 67.5Z" class="shp0"/></g><g id="Layer"><path id="Layer" d="M52.5 26.46L52.5 57.5L47.5 57.5L47.5 27.5C49.28 27.5 50.98 27.13 52.5 26.45L52.5 26.46Z" class="shp0"/></g><g id="Layer"><path id="Layer" d="M39.93 24.94C36.93 22.65 35 19.05 35 15C35 14.14 35.09 13.3 35.25 12.49C35.16 12.5 35.09 12.5 35 12.5L20 12.5C18.63 12.5 17.5 11.38 17.5 10L8.75 10C8.06 10 7.5 10.56 7.5 11.25L7.5 22.5L7.5 71.25C7.5 71.94 8.06 72.5 8.75 72.5L46.25 72.5C46.94 72.5 47.5 71.94 47.5 71.25L47.5 27.5C44.65 27.5 42.02 26.55 39.93 24.94Z" class="shp1"/></g><g id="Layer"><path id="Layer" d="M40 62.5L40 67.5L31.18 64.19C30.46 63.92 30 63.25 30 62.5C30 61.75 30.46 61.08 31.18 60.81L40 57.5L40 62.5Z" class="shp2"/></g><g id="Layer"><path id="Layer" d="M76.04 58.96C76.94 59.88 77.5 61.13 77.5 62.5C77.5 65.26 75.26 67.5 72.5 67.5L67.5 67.5L67.5 62.5L67.5 57.5L72.5 57.5C73.88 57.5 75.13 58.06 76.04 58.96Z" class="shp2"/></g><g id="Layer"><path id="Layer" d="M67.5 62.5L67.5 67.5L52.5 67.5L47.5 67.5L40 67.5L40 62.5L67.5 62.5Z" class="shp3"/></g><g id="Layer"><path id="Layer" d="M67.5 57.5L67.5 62.5L40 62.5L40 57.5L47.5 57.5L52.5 57.5L67.5 57.5Z" class="shp4"/></g><g id="Layer"><path id="Layer" d="M36.6 29.31C34.08 27.39 30.93 26.25 27.5 26.25C19.21 26.25 12.5 32.96 12.5 41.25C12.5 43.99 13.22 46.55 14.51 48.76C17.1 53.24 21.95 56.25 27.5 56.25C33.05 56.25 37.9 53.24 40.49 48.76C41.78 46.55 42.5 43.99 42.5 41.25C42.5 36.38 40.19 32.05 36.6 29.31Z" class="shp5"/></g><g id="Layer"><path id="Layer" d="M30 36.25L35 36.25L35 48.75L30 48.75L30 36.25Z" class="shp6"/></g><g id="Layer"><path id="Layer" d="M30 36.25L30 48.75L25 48.75L25 41.25L25 33.75L30 33.75L30 36.25Z" class="shp6"/></g><g id="Layer"><path id="Layer" d="M20 41.25L25 41.25L25 48.75L20 48.75L20 41.25Z" class="shp6"/></g><g id="Layer"><path id="Layer" d="M37.5 5L37.5 7.5C36.41 8.95 35.63 10.64 35.25 12.49C35.16 12.5 35.09 12.5 35 12.5L20 12.5C18.63 12.5 17.5 11.38 17.5 10L17.5 5C17.5 3.63 18.63 2.5 20 2.5L35 2.5C36.38 2.5 37.5 3.63 37.5 5Z" class="shp4"/></g><g id="Layer"><path id="Layer" d="M73.75 15L76.25 20L68.75 20L66.25 15L71.25 15L73.75 15Z" class="shp7"/></g><g id="Layer"><path id="Layer" d="M76.25 10L73.75 15L71.25 15L66.25 15L68.75 10L76.25 10Z" class="shp7"/></g><g id="Layer"><path id="Layer" d="M60 15C60 18.94 58.17 22.46 55.31 24.76C54.46 25.44 53.51 26.01 52.5 26.45C50.98 27.13 49.28 27.5 47.5 27.5C44.65 27.5 42.02 26.55 39.93 24.94C36.93 22.65 35 19.05 35 15C35 14.14 35.09 13.3 35.25 12.49C35.63 10.64 36.41 8.95 37.5 7.5C39.79 4.46 43.41 2.5 47.5 2.5C54.4 2.5 60 8.1 60 15Z" class="shp5"/></g><g id="Layer"><path id="Layer" d="M47.5 20C44.73 20 42.5 17.77 42.5 15C42.5 12.23 44.73 10 47.5 10C50.27 10 52.5 12.23 52.5 15C52.5 17.77 50.27 20 47.5 20Z" class="shp8"/></g><g id="Layer"><path id="Layer" d="M67.5 30C73.03 30 77.5 34.47 77.5 40C77.5 45.53 73.03 50 67.5 50C61.97 50 57.5 45.53 57.5 40C57.5 36.84 58.96 34.02 61.25 32.19C62.96 30.82 65.14 30 67.5 30Z" class="shp5"/></g><g id="Layer"><path id="Layer" d="M71.39 38.19C72.06 38.54 72.5 39.24 72.5 40C72.5 40.76 72.06 41.46 71.39 41.81L65.43 44.79C65.15 44.93 64.84 45 64.53 45C63.4 45 62.5 44.1 62.5 42.98L62.5 37.03C62.5 35.9 63.4 35 64.53 35C64.84 35 65.15 35.08 65.43 35.21L71.39 38.19Z" class="shp8"/></g></g><g id="Layer"><path id="Layer" fill-rule="evenodd" d="M78.75 62.5C78.75 65.95 75.95 68.75 72.5 68.75L53.75 68.75L53.75 72.5C53.75 75.95 50.95 78.75 47.5 78.75L7.5 78.75C4.05 78.75 1.25 75.95 1.25 72.5L1.25 10C1.25 6.55 4.05 3.75 7.5 3.75L16.48 3.75C17 2.3 18.37 1.25 20 1.25L35 1.25C36.88 1.25 38.43 2.64 38.7 4.45C41.08 2.46 44.15 1.25 47.5 1.25C54.66 1.25 60.55 6.75 61.19 13.75L65.48 13.75L67.98 8.75L78.27 8.75L75.15 15L78.27 21.25L67.98 21.25L65.48 16.25L61.19 16.25C60.88 19.64 59.34 22.67 57.02 24.9L61.5 30.5C63.24 29.4 65.29 28.75 67.5 28.75C73.7 28.75 78.75 33.8 78.75 40C78.75 46.2 73.7 51.25 67.5 51.25C61.3 51.25 56.25 46.2 56.25 40C56.25 36.9 57.51 34.09 59.54 32.05L55.07 26.47C54.65 26.75 54.2 27 53.75 27.23L53.75 56.25L72.5 56.25C75.95 56.25 78.75 59.05 78.75 62.5ZM67.5 31.25C62.68 31.25 58.75 35.17 58.75 40C58.75 44.82 62.68 48.75 67.5 48.75C72.32 48.75 76.25 44.82 76.25 40C76.25 35.17 72.32 31.25 67.5 31.25ZM74.23 18.75L72.98 16.25L68.27 16.25L69.52 18.75L74.23 18.75ZM68.27 13.75L72.98 13.75L74.23 11.25L69.52 11.25L68.27 13.75ZM51.25 68.75L48.75 68.75L48.75 71.25C48.75 72.63 47.63 73.75 46.25 73.75L8.75 73.75C7.37 73.75 6.25 72.63 6.25 71.25L6.25 11.25C6.25 9.87 7.37 8.75 8.75 8.75L16.25 8.75L16.25 6.25L7.5 6.25C5.43 6.25 3.75 7.93 3.75 10L3.75 72.5C3.75 74.57 5.43 76.25 7.5 76.25L47.5 76.25C49.57 76.25 51.25 74.57 51.25 72.5L51.25 68.75ZM8.75 11.25L8.75 71.25L46.25 71.25L46.25 68.75L39.77 68.75L30.73 65.36C29.55 64.91 28.75 63.77 28.75 62.5C28.75 61.23 29.55 60.09 30.73 59.64L39.77 56.25L46.25 56.25L46.25 28.69C44.04 28.49 41.99 27.76 40.21 26.63L38.3 29.14C41.63 32.12 43.75 36.44 43.75 41.25C43.75 50.21 36.46 57.5 27.5 57.5C18.54 57.5 11.25 50.21 11.25 41.25C11.25 32.29 18.54 25 27.5 25C30.75 25 33.77 25.97 36.32 27.62L38.22 25.12C35.48 22.6 33.75 19 33.75 15C33.75 14.58 33.78 14.16 33.81 13.75L20 13.75C18.37 13.75 17 12.7 16.48 11.25L8.75 11.25ZM39.73 47.5C40.69 45.62 41.25 43.5 41.25 41.25C41.25 33.67 35.08 27.5 27.5 27.5C19.92 27.5 13.75 33.67 13.75 41.25C13.75 43.5 14.31 45.62 15.27 47.5L18.75 47.5L18.75 40L23.75 40L23.75 32.5L31.25 32.5L31.25 35L36.25 35L36.25 47.5L39.73 47.5ZM23.75 42.5L21.25 42.5L21.25 47.5L23.75 47.5L23.75 42.5ZM16.9 50C19.43 53.05 23.24 55 27.5 55C31.76 55 35.58 53.05 38.1 50L16.9 50ZM33.75 37.5L31.25 37.5L31.25 47.5L33.75 47.5L33.75 37.5ZM38.75 65.7L38.75 59.3L31.61 61.98C31.4 62.06 31.25 62.27 31.25 62.5C31.25 62.73 31.4 62.94 31.61 63.02L38.75 65.7ZM66.25 66.25L66.25 63.75L41.25 63.75L41.25 66.25L66.25 66.25ZM66.25 58.75L41.25 58.75L41.25 61.25L66.25 61.25L66.25 58.75ZM51.25 28.22C50.44 28.45 49.61 28.61 48.75 28.69L48.75 56.25L51.25 56.25L51.25 28.22ZM36.25 15C36.25 21.2 41.3 26.25 47.5 26.25C53.28 26.25 58.05 21.87 58.68 16.25L53.62 16.25C53.04 19.1 50.52 21.25 47.5 21.25C44.05 21.25 41.25 18.45 41.25 15C41.25 11.55 44.05 8.75 47.5 8.75C50.52 8.75 53.04 10.9 53.62 13.75L58.68 13.75C58.05 8.13 53.28 3.75 47.5 3.75C41.3 3.75 36.25 8.8 36.25 15ZM46.25 16.25L46.25 13.75L51.02 13.75C50.5 12.3 49.13 11.25 47.5 11.25C45.43 11.25 43.75 12.93 43.75 15C43.75 17.07 45.43 18.75 47.5 18.75C49.13 18.75 50.5 17.7 51.02 16.25L46.25 16.25ZM18.75 10C18.75 10.69 19.31 11.25 20 11.25L34.29 11.24C34.71 9.75 35.38 8.36 36.25 7.12L36.25 5C36.25 4.31 35.69 3.75 35 3.75L20 3.75C19.31 3.75 18.75 4.31 18.75 5L18.75 10ZM28.75 35L26.25 35L26.25 47.5L28.75 47.5L28.75 35ZM76.25 62.5C76.25 60.43 74.57 58.75 72.5 58.75L68.75 58.75L68.75 66.25L72.5 66.25C74.57 66.25 76.25 64.57 76.25 62.5Z" class="shp9"/><path id="Layer" fill-rule="evenodd" d="M61.25 37.02C61.25 35.22 62.72 33.75 64.52 33.75C65.03 33.75 65.53 33.87 65.99 34.09L71.94 37.07C73.06 37.63 73.75 38.75 73.75 40C73.75 41.25 73.06 42.37 71.94 42.93L65.99 45.9C65.54 46.13 65.03 46.25 64.52 46.25C62.72 46.25 61.25 44.78 61.25 42.98L61.25 37.02ZM63.75 42.98C63.75 43.52 64.39 43.92 64.87 43.67L70.82 40.69C71.09 40.56 71.25 40.29 71.25 40C71.25 39.71 71.09 39.44 70.82 39.31L64.87 36.33C64.76 36.28 64.64 36.25 64.52 36.25C64.1 36.25 63.75 36.6 63.75 37.02L63.75 42.98Z" class="shp9"/><path id="Layer" d="M11.25 61.25L26.25 61.25L26.25 63.75L11.25 63.75L11.25 61.25Z" class="shp9"/><path id="Layer" d="M11.25 66.25L26.25 66.25L26.25 68.75L11.25 68.75L11.25 66.25Z" class="shp9"/><path id="Layer" d="M11.25 16.25L13.75 16.25L13.75 18.75L11.25 18.75L11.25 16.25Z" class="shp9"/><path id="Layer" d="M16.25 16.25L31.25 16.25L31.25 18.75L16.25 18.75L16.25 16.25Z" class="shp9"/><path id="Layer" d="M11.25 21.25L13.75 21.25L13.75 23.75L11.25 23.75L11.25 21.25Z" class="shp9"/><path id="Layer" d="M16.25 21.25L31.25 21.25L31.25 23.75L16.25 23.75L16.25 21.25Z" class="shp9"/></g></g></svg>